# xmcd
#
# Track frame offsets: 
#        150
#        20460
#        30787
#        50857
#        64055
#        78305
#        90487
#        110692
#        126765
#        144605
#        153440
#        160650
#        175220
#        186780
#        201750
#        217957
#        237230
#        244012
#        262550
#        284137
#
# Disc length: 3970 seconds
#
# Revision: 27
# Processed by: cddbd v1.5.2PL0 Copyright (c) Steve Scherf et al.
# Submitted via: ExactAudioCopy v0.99pb4
#
DISCID=0f0f8014
DTITLE=Various Artist - O Brother, Where Art Thou?
DYEAR=2000
DGENRE=Folk
TTITLE0=James Carter and The Prisoners - Po Lazarus
TTITLE1=Harry McClintock - Big Rock Candy Mountain
TTITLE2=Norman Blake - You Are My Sunshine
TTITLE3=Alison Krauss - Down to the River to Pray
TTITLE4=Soggy Bottom Boys - I Am a Man of Constant Sorrow
TTITLE5=Chris Thomas King - Hard Time Killing Floor Blues
TTITLE6=Norman Blake - I Am a Man of Constant Sorrow
TTITLE7=Whites - Keep On the Sunny Side
TTITLE8=Alison Krauss and Gillian Welch - I'll Fly Away
TTITLE9=Emmylou Harris, Alison Krauss and Gillian Welch - Didn't Leave N
TTITLE9=obody but the Baby
TTITLE10=Sarah, Hanna and Leah Peasall - In the Highways
TTITLE11=Cox Family - I Am Weary (Let Me Rest)
TTITLE12=John Hartford - I Am a Man of Constant Sorrow
TTITLE13=Ralph Stanley - O Death
TTITLE14=Soggy Bottom Boys - In the Jailhouse Now
TTITLE15=Soggy Bottom Boys - I Am a Man of Constant Sorrow
TTITLE16=John Hartford - Indian War Whoop
TTITLE17=Fairfield Four - Lonesome Valley
TTITLE18=Stanley Brothers - Angel Band
TTITLE19=None - Data
EXTD=
EXTT0=
EXTT1=
EXTT2=
EXTT3=
EXTT4=
EXTT5=
EXTT6=
EXTT7=
EXTT8=
EXTT9=
EXTT10=
EXTT11=
EXTT12=
EXTT13=
EXTT14=
EXTT15=
EXTT16=
EXTT17=
EXTT18=
EXTT19=
PLAYORDER=
